<?xml version="1.0" encoding="UTF-8" ?>
<!DOCTYPE svg PUBLIC "-//W3C//DTD SVG 1.1//EN" "http://www.w3.org/Graphics/SVG/1.1/DTD/svg11.dtd">
<svg width="303pt" height="303pt" viewBox="0 0 303 303" version="1.1" xmlns="http://www.w3.org/2000/svg">
<path fill="#ffffff" d=" M 0.00 0.00 L 303.00 0.00 L 303.00 141.70 C 299.86 107.70 286.08 74.40 262.57 49.43 C 236.18 21.21 198.43 4.41 160.00 2.13 C 153.90 1.60 147.76 1.56 141.66 2.20 C 125.19 3.85 108.68 6.88 93.34 13.31 C 64.30 24.95 39.14 46.01 22.71 72.63 C 14.56 85.91 8.14 100.33 4.38 115.47 C 2.29 123.77 1.11 132.26 0.00 140.73 L 0.00 0.00 Z" />
<path fill="#020202" d=" M 141.66 2.20 C 147.76 1.56 153.90 1.60 160.00 2.13 C 198.43 4.41 236.18 21.21 262.57 49.43 C 286.08 74.40 299.86 107.70 303.00 141.70 L 303.00 161.34 C 300.51 195.57 286.27 228.77 263.03 254.04 C 242.39 275.83 215.33 291.74 185.95 298.20 C 170.09 301.52 153.79 302.74 137.62 301.65 C 109.08 298.63 81.22 288.07 58.35 270.64 C 33.38 251.87 15.05 224.70 6.23 194.79 C 3.02 184.20 1.34 173.23 0.00 162.27 L 0.00 140.73 C 1.11 132.26 2.29 123.77 4.38 115.47 C 8.14 100.33 14.56 85.91 22.71 72.63 C 39.14 46.01 64.30 24.95 93.34 13.31 C 108.68 6.88 125.19 3.85 141.66 2.20 Z" />
<path fill="#e3e3e3" d=" M 141.37 8.30 C 145.23 7.94 149.11 7.64 153.00 7.77 C 170.94 8.52 188.97 11.43 205.64 18.30 C 231.25 28.26 254.17 45.45 269.98 68.01 C 289.21 95.29 299.34 129.23 296.61 162.61 C 294.68 191.31 283.40 219.08 265.66 241.63 C 254.77 255.80 240.64 267.22 225.33 276.32 C 204.40 288.62 180.27 295.29 156.01 295.72 C 147.10 295.84 138.10 296.08 129.28 294.50 C 94.38 288.77 61.07 270.96 38.61 243.39 C 17.92 218.15 6.03 185.67 6.15 153.00 C 4.75 102.08 34.03 52.11 78.30 27.28 C 91.74 19.78 106.24 13.94 121.43 11.19 C 128.04 10.01 134.68 8.93 141.37 8.30 Z" />
<path fill="#000000" d=" M 143.52 27.54 C 145.34 24.62 147.53 20.22 151.73 21.28 C 154.82 22.25 156.13 25.71 157.83 28.19 C 167.86 45.52 178.73 62.35 188.52 79.80 C 184.48 80.14 180.42 80.11 176.38 79.77 C 173.82 74.75 170.79 70.00 167.95 65.15 C 158.88 64.58 149.79 65.76 140.74 64.68 C 142.24 62.21 143.71 59.72 145.06 57.16 C 151.02 57.27 156.98 57.16 162.92 56.77 C 158.65 49.75 154.73 42.51 150.12 35.70 C 141.00 50.22 132.63 65.19 123.80 79.88 C 120.06 80.12 116.30 80.07 112.56 79.85 C 122.35 62.11 133.40 45.10 143.52 27.54 Z" />
<path fill="#000000" d=" M 67.31 60.32 C 74.79 56.96 83.65 65.11 80.96 72.84 C 79.53 79.60 70.69 82.47 65.18 78.67 C 58.35 74.57 59.53 62.62 67.31 60.32 Z" />
<path fill="#000000" d=" M 227.31 60.32 C 234.79 56.96 243.65 65.11 240.96 72.84 C 239.53 79.60 230.69 82.47 225.18 78.67 C 218.35 74.57 219.53 62.62 227.31 60.32 Z" />
<path fill="#000000" d=" M 85.66 102.89 C 92.09 104.44 97.30 108.67 102.78 112.14 C 117.06 121.43 131.02 131.22 144.71 141.36 C 147.69 143.47 150.43 146.21 154.03 147.23 C 159.45 147.85 164.88 146.99 170.29 146.63 C 184.18 145.91 198.11 146.81 212.00 145.83 C 216.61 145.63 221.22 145.73 225.84 145.79 C 226.45 137.26 226.12 128.70 226.19 120.16 C 237.47 119.89 248.76 120.30 260.05 120.17 C 269.80 119.82 279.64 124.97 284.35 133.61 C 288.11 139.94 288.39 147.63 287.43 154.75 C 285.79 163.88 279.53 172.26 270.87 175.82 C 265.55 178.05 259.67 178.04 254.00 178.18 C 244.72 178.09 235.44 178.41 226.18 177.83 C 226.13 169.43 226.44 161.01 225.84 152.62 C 203.58 153.83 181.27 153.20 158.99 153.44 C 155.02 153.33 150.56 154.41 147.05 152.00 C 133.28 141.79 119.10 132.10 105.86 121.17 C 98.93 115.31 90.95 110.42 85.66 102.89 Z" />
<path fill="#000000" d=" M 21.48 120.22 C 39.59 119.90 57.71 120.31 75.83 120.17 C 75.77 123.49 75.77 126.80 75.79 130.12 C 68.51 130.32 61.22 130.28 53.94 130.26 C 53.49 146.15 53.85 162.05 53.74 177.94 C 50.40 178.01 47.05 178.06 43.70 178.00 C 43.55 162.09 43.64 146.18 43.65 130.26 C 36.26 130.24 28.86 130.48 21.49 129.90 C 21.57 126.67 21.57 123.45 21.48 120.22 Z" />
<path fill="#e3e3e3" d=" M 236.26 130.25 C 244.19 130.34 252.12 130.15 260.05 130.28 C 263.98 130.26 267.96 131.43 271.03 133.96 C 280.42 141.20 280.05 157.54 270.45 164.45 C 267.47 166.71 263.71 167.69 260.02 167.71 C 252.12 167.84 244.23 167.71 236.34 167.67 C 236.21 162.36 236.22 157.04 236.40 151.73 C 240.88 151.73 245.36 151.45 249.85 151.36 C 255.92 151.41 261.96 150.45 267.66 148.36 C 257.42 146.05 246.83 145.64 236.37 146.13 C 236.24 140.84 236.21 135.54 236.26 130.25 Z" />
<path fill="#6a6a6a" d=" M 236.37 146.13 C 246.83 145.64 257.42 146.05 267.66 148.36 C 261.96 150.45 255.92 151.41 249.85 151.36 C 253.33 150.47 256.79 149.50 260.26 148.56 C 252.17 146.55 243.82 147.14 235.61 146.15 L 236.37 146.13 Z" />
<path fill="#ffffff" d=" M 263.03 254.04 C 286.27 228.77 300.51 195.57 303.00 161.34 L 303.00 303.00 L 0.00 303.00 L 0.00 162.27 C 1.34 173.23 3.02 184.20 6.23 194.79 C 15.05 224.70 33.38 251.87 58.35 270.64 C 81.22 288.07 109.08 298.63 137.62 301.65 C 153.79 302.74 170.09 301.52 185.95 298.20 C 215.33 291.74 242.39 275.83 263.03 254.04 Z" />
<path fill="#000000" d=" M 67.31 220.32 C 74.80 216.96 83.64 225.11 80.96 232.84 C 79.54 239.60 70.69 242.47 65.18 238.67 C 58.34 234.56 59.53 222.62 67.31 220.32 Z" />
<path fill="#000000" d=" M 227.32 220.32 C 234.80 216.97 243.64 225.11 240.97 232.84 C 239.53 239.60 230.68 242.47 225.18 238.67 C 218.34 234.56 219.53 222.61 227.32 220.32 Z" />
<path fill="#000000" d=" M 142.53 227.54 C 144.30 224.88 146.07 220.75 149.92 221.19 C 153.07 221.30 154.49 224.68 156.06 226.92 C 166.35 244.66 177.47 261.93 187.52 279.80 C 183.48 280.14 179.42 280.11 175.38 279.77 C 172.82 274.76 169.80 270.01 166.96 265.17 C 157.88 265.06 148.79 265.51 139.73 264.68 C 141.24 262.21 142.71 259.72 144.06 257.16 C 150.01 257.27 155.97 257.16 161.92 256.77 C 157.65 249.75 153.73 242.51 149.12 235.70 C 139.99 250.21 131.63 265.19 122.80 279.88 C 119.06 280.12 115.30 280.07 111.55 279.85 C 121.36 262.11 132.40 245.09 142.53 227.54 Z" />
</svg>
