<?xml version="1.0" standalone="no"?>
<!DOCTYPE svg PUBLIC "-//W3C//DTD SVG 20010904//EN"
 "http://www.w3.org/TR/2001/REC-SVG-20010904/DTD/svg10.dtd">
<svg version="1.0" xmlns="http://www.w3.org/2000/svg"
 width="303.000000pt" height="303.000000pt" viewBox="0 0 303.000000 303.000000"
 preserveAspectRatio="xMidYMid meet">
<metadata>
Created by potrace 1.11, written by Peter Selinger 2001-2013
</metadata>
<g transform="translate(0.000000,303.000000) scale(0.100000,-0.100000)"
fill="#000000" stroke="none">
<path d="M1380 3019 c-283 -33 -506 -112 -725 -256 -128 -85 -316 -272 -399
-397 -69 -104 -155 -280 -189 -387 -53 -161 -62 -230 -62 -454 0 -183 3 -223
23 -314 68 -303 194 -534 406 -747 186 -185 368 -296 621 -377 178 -57 288
-71 505 -64 208 6 320 26 473 81 218 79 391 189 558 355 175 175 292 365 369
601 57 173 73 298 67 510 -8 250 -47 407 -155 623 -85 168 -144 249 -277 383
-180 180 -341 280 -597 369 -176 62 -448 94 -618 74z m347 -85 c618 -91 1086
-537 1210 -1151 25 -125 25 -415 -1 -533 -84 -389 -293 -704 -608 -914 -174
-116 -335 -182 -543 -223 -129 -25 -428 -25 -545 0 -592 126 -1017 544 -1142
1120 -30 140 -32 428 -4 562 142 679 716 1149 1410 1154 65 1 165 -6 223 -15z"/>
<path d="M855 2328 c-3 -7 -6 -168 -7 -358 l-3 -345 -227 -3 c-194 -2 -228 -5
-228 -17 0 -8 -4 -15 -10 -15 -6 0 -10 -38 -10 -95 0 -57 4 -95 10 -95 6 0 10
-7 10 -16 0 -14 25 -15 228 -13 l227 3 3 -334 c1 -225 6 -338 13 -347 9 -10
112 -13 543 -13 504 0 536 1 612 21 296 76 514 307 590 624 24 102 22 316 -5
415 -36 138 -81 228 -161 327 -79 97 -224 196 -340 232 -19 6 -57 17 -84 26
-42 13 -133 15 -603 15 -434 0 -555 -3 -558 -12z m1042 -322 c45 -8 108 -27
139 -43 287 -140 347 -582 112 -817 -127 -126 -216 -146 -654 -146 -217 0
-295 3 -307 13 -16 11 -17 32 -15 197 l3 185 120 7 c66 3 149 11 185 17 36 6
94 11 130 11 91 1 370 44 408 64 62 32 31 59 -86 75 -190 27 -288 35 -512 40
l-245 6 -3 189 c-2 130 1 193 9 202 17 20 600 20 716 0z"/>
</g>
</svg>
